<?xml version="1.0" encoding="UTF-8"?>
<svg width="752pt" height="752pt" version="1.1" viewBox="0 0 752 752" xmlns="http://www.w3.org/2000/svg">
 <path d="m338.11 172.36c-13.035 0-23.676 10.641-23.676 23.676v47.062c-8.0117 3.707-15.625 7.9805-22.793 13.023l-40.699-23.531c-11.297-6.5195-25.891-2.5586-32.41 8.7344l-37.887 65.707c-6.5234 11.297-2.5586 25.891 8.7344 32.41l40.695 23.383c-0.42188 4.2891-0.88672 8.6562-0.88672 13.172 0 4.4492 0.35156 8.8438 0.73828 13.172l-40.547 23.383c-11.293 6.5195-15.258 21.113-8.7344 32.41l37.887 65.711c6.5195 11.293 21.113 15.254 32.41 8.7305l40.848-23.531c7.1172 5.0156 14.664 9.3203 22.645 13.023v47.062c0 13.039 10.641 23.68 23.676 23.68h75.773c13.039 0 23.68-10.641 23.68-23.68v-47.062c8.0117-3.7031 15.625-7.9805 22.793-13.023l40.695 23.531c11.301 6.5234 25.895 2.5625 32.414-8.7305l37.887-65.711c6.5195-11.297 2.5586-25.891-8.7344-32.41l-40.699-23.383c0.42578-4.2891 0.89062-8.6523 0.89062-13.172 0-4.4453-0.35156-8.8398-0.74219-13.172l40.551-23.383c11.293-6.5195 15.254-21.113 8.7344-32.41l-37.887-65.707c-6.5195-11.293-21.113-15.254-32.414-8.7344l-40.844 23.531c-7.1172-5.0117-14.668-9.3203-22.645-13.023v-47.062c0-13.035-10.641-23.676-23.68-23.676zm0 9.4688h75.773c7.9531 0 14.207 6.2539 14.207 14.207v49.727c0.015625 1.8594 1.1172 3.5391 2.8125 4.293 9.4258 4.1172 18.301 9.3516 26.492 15.391 1.5156 1.1211 3.5469 1.2383 5.1797 0.29688l43.215-24.863c6.8789-3.9727 15.41-1.707 19.387 5.1797l37.887 65.711c3.9727 6.8789 1.7031 15.41-5.1797 19.387l-43.066 24.863c-1.6797 0.94922-2.6172 2.8203-2.3672 4.7344 0.55859 5.043 0.88672 10.062 0.88672 15.242 0 5.0938-0.46484 10.113-1.0352 15.246-0.25 1.9141 0.6875 3.7852 2.3672 4.7344l43.215 24.863c6.8828 3.9766 9.1523 12.508 5.1797 19.387l-37.887 65.711c-3.9766 6.8828-12.508 9.1523-19.387 5.1797l-43.066-24.863c-1.6328-0.94141-3.668-0.82422-5.1797 0.29688-8.1992 6.0547-17.148 11.242-26.641 15.391-1.6953 0.75391-2.7969 2.4336-2.8125 4.2891v49.727c0 7.9531-6.2539 14.207-14.207 14.207h-75.773c-7.9492 0-14.207-6.2539-14.207-14.207v-49.727c-0.011719-1.8555-1.1133-3.5352-2.8125-4.2891-9.4258-4.1211-18.297-9.3516-26.488-15.391-1.5156-1.1211-3.5469-1.2383-5.1797-0.29688l-43.215 24.863c-6.8789 3.9727-15.414 1.7031-19.387-5.1797l-37.887-65.711c-3.9727-6.8789-1.707-15.41 5.1797-19.387l43.066-24.863c1.6797-0.94922 2.6172-2.8203 2.3672-4.7344-0.55859-5.0469-0.88672-10.062-0.88672-15.246 0-5.0898 0.46484-10.109 1.0352-15.242 0.25-1.9141-0.6875-3.7852-2.3672-4.7344l-43.215-24.863c-6.8867-3.9766-9.1523-12.508-5.1797-19.387l37.887-65.711c3.9727-6.8867 12.508-9.1523 19.387-5.1797l43.066 24.863c1.6328 0.94141 3.6641 0.82422 5.1797-0.29688 8.1992-6.0586 17.148-11.246 26.637-15.391 1.6992-0.75391 2.8008-2.4336 2.8125-4.293v-49.727c0-7.9531 6.2578-14.207 14.207-14.207zm37.887 127.87c-36.559 0-66.301 29.742-66.301 66.301 0 36.562 29.742 66.305 66.301 66.305 36.562 0 66.305-29.742 66.305-66.305 0-36.559-29.742-66.301-66.305-66.301zm0 9.4727c31.445 0 56.832 25.387 56.832 56.828 0 31.445-25.387 56.832-56.832 56.832-31.441 0-56.828-25.387-56.828-56.832 0-31.441 25.387-56.828 56.828-56.828z"/>
</svg>
