<?xml version="1.0" encoding="UTF-8"?>
<svg width="752pt" height="752pt" version="1.1" viewBox="0 0 752 752" xmlns="http://www.w3.org/2000/svg">
 <g>
  <path d="m376 607.24c-61.789 0-119.88-24.051-163.54-67.707-43.656-43.66-67.703-101.75-67.703-163.54 0-61.785 24.047-119.88 67.707-163.53 43.656-43.66 101.75-67.707 163.53-67.707 61.789 0 119.88 24.051 163.54 67.707 43.656 43.656 67.707 101.75 67.707 163.53 0 61.789-24.051 119.88-67.707 163.54-43.66 43.656-101.75 67.707-163.54 67.707zm0-453.23c-122.37 0-221.99 99.617-221.99 221.99s99.617 221.99 221.99 221.99c122.37 0 221.99-99.617 221.99-221.99-0.003906-122.37-99.621-221.99-222-221.99z"/>
  <path d="m373.88 438.71-108.78-62.715 108.68-62.711-23.309 63.359zm-94.902-62.715 81.582 47.082-17.48-46.527 17.574-47.82z"/>
  <path d="m486.91 438.71-108.78-62.715 108.68-62.711-23.309 63.359zm-94.902-62.715 81.582 47.082-17.48-46.527 17.574-47.82z"/>
 </g>
</svg>
