<?xml version="1.0" encoding="UTF-8"?>
<svg width="752pt" height="752pt" version="1.1" viewBox="0 0 752 752" xmlns="http://www.w3.org/2000/svg">
 <g>
  <path d="m376 351.47c21.043 0 41.223-8.3594 56.098-23.238 14.879-14.879 23.234-35.059 23.23-56.102-0.007813-21.039-8.3711-41.219-23.254-56.09-14.883-14.875-35.062-23.227-56.105-23.219-21.039 0.007813-41.215 8.375-56.086 23.262-14.871 14.887-23.219 35.07-23.207 56.109 0.027344 21.027 8.3945 41.184 23.266 56.047s35.035 23.219 56.059 23.23zm0-149.13c18.527 0 36.297 7.3594 49.395 20.457 13.102 13.102 20.461 30.871 20.461 49.395 0 18.527-7.3594 36.293-20.461 49.395-13.098 13.102-30.867 20.461-49.395 20.461-18.523 0-36.293-7.3594-49.391-20.461-13.102-13.102-20.461-30.867-20.461-49.395 0.011718-18.52 7.375-36.281 20.473-49.379s30.859-20.461 49.379-20.473z"/>
  <path d="m269.4 558.99h213.11c7.5352 0 14.762-2.9922 20.09-8.3203 5.3281-5.332 8.3242-12.559 8.3242-20.094v-8.668c-1.2578-47.367-27.254-90.613-68.496-113.94-41.246-23.332-91.703-23.332-132.95 0-41.246 23.328-67.242 66.574-68.496 113.94v8.668c0 7.5352 2.9922 14.762 8.3203 20.094 5.332 5.3281 12.559 8.3203 20.094 8.3203zm-18.941-37.082c1.207-44.016 25.387-84.18 63.723-105.85 38.332-21.664 85.215-21.664 123.55 0 38.332 21.668 62.512 61.832 63.723 105.85v8.668c0 5.0234-1.9961 9.8438-5.5469 13.395-3.5547 3.5547-8.3711 5.5469-13.395 5.5469h-213.11c-5.0234 0-9.8438-1.9922-13.395-5.5469-3.5547-3.5508-5.5469-8.3711-5.5469-13.395z"/>
 </g>
</svg>
