<?xml version="1.0" encoding="UTF-8"?>
<svg width="752pt" height="752pt" version="1.1" viewBox="0 0 752 752" xmlns="http://www.w3.org/2000/svg">
 <g>
  <path d="m376 199.34c-97.438 0-176.7 79.266-176.7 176.66 0 97.402 79.285 176.67 176.7 176.67s176.68-79.246 176.68-176.64c0.003906-97.402-79.242-176.69-176.68-176.69zm163.48 176.66c0 90.117-73.324 163.46-163.48 163.46-90.156 0-163.48-73.324-163.48-163.46 0-90.137 73.348-163.48 163.48-163.48 90.141 0 163.48 73.348 163.48 163.48z"/>
  <path d="m457.66 368.88-120.82-60.402c-3.1758-1.5391-7.0234-0.98828-9.5312 1.4414-1.5391 1.5781-2.4062 3.6875-2.4062 5.9766v120.25c0 4.6562 3.5312 8.3281 8.0312 8.3281 1.3438 0 2.6641-0.31641 3.9258-0.92578l120.78-60.441c2.9219-1.4414 4.6562-4.1055 4.6562-7.1055 0.003907-2.9961-1.7148-5.6797-4.6328-7.1211zm-15.312 7.1211-104.23 52.113-0.003907-104.21z"/>
 </g>
</svg>
