<?xml version="1.0" encoding="UTF-8"?>
<svg width="752pt" height="752pt" version="1.1" viewBox="0 0 752 752" xmlns="http://www.w3.org/2000/svg">
 <g>
  <path d="m475.99 422.16c-4.625 0-8.3242 3.6992-8.3242 8.3242s3.6992 8.3242 8.3242 8.3242c34.594 0 62.805-28.211 62.805-62.805s-28.211-62.805-62.805-62.805c-4.625 0-8.3242 3.6992-8.3242 8.3242s3.6992 8.3242 8.3242 8.3242c25.438 0 46.156 20.719 46.156 46.156s-20.719 46.156-46.156 46.156z"/>
  <path d="m407.64 580.97c1.3867 0.92578 2.9609 1.2969 4.5312 1.2969 1.3867 0 2.6836-0.37109 3.8867-1.0156 2.6836-1.4805 4.2539-4.2539 4.2539-7.3086v-395.79c0-3.0508-1.5742-5.8281-4.2539-7.3086-2.6836-1.4805-5.918-1.3867-8.5078 0.27734l-163.35 105.91h-56.422c-14.801 0-27.285 12.211-27.285 27.008v143.93c0 14.801 12.488 27.008 27.285 27.008h56.422zm-3.8867-22.477-147.99-96.012v-172.97l147.99-96.008zm-226.62-110.53v-143.93c0-5.6406 4.9961-10.359 10.637-10.359h51.336v164.64h-51.332c-5.6445 0-10.641-4.7188-10.641-10.359z"/>
  <path d="m475.34 260.2c-4.625 0-8.3242 3.6992-8.3242 8.3242s3.6992 8.3242 8.3242 8.3242c54.664 0 99.156 44.492 99.156 99.156s-44.492 99.156-99.156 99.156c-4.625 0-8.3242 3.6992-8.3242 8.3242s3.6992 8.3242 8.3242 8.3242c63.824 0 115.8-51.891 115.8-115.8-0.09375-63.82-51.984-115.8-115.8-115.8z"/>
 </g>
</svg>
