<?xml version="1.0" encoding="UTF-8"?>
<svg width="752pt" height="752pt" version="1.1" viewBox="0 0 752 752" xmlns="http://www.w3.org/2000/svg">
 <path d="m374.51 164.55c-117.8 0-213.64 95.832-213.64 213.64 0 117.91 95.84 213.84 213.64 213.84 117.79 0 213.64-95.938 213.64-213.84 0-117.8-95.844-213.64-213.64-213.64zm198.55 206.19h-86.746c-0.66406-36.445-6.1133-70.586-15.215-100.21 16.309-8.2734 31.59-18.707 45.5-31.102 33.395 34.188 54.566 80.312 56.461 131.31zm-191.11-190.62c28.762 4.7266 54.441 36.449 70.859 82.477-22.25 9.5312-46.203 14.969-70.859 15.879zm-14.895 0v98.355c-24.691-0.91016-48.637-6.3359-70.867-15.859 16.414-46.031 42.105-77.77 70.867-82.496zm0 113.25v77.371h-89.469c0.64453-33.957 5.6758-66.051 13.949-93.902 23.723 9.9844 49.234 15.637 75.52 16.531zm0 92.27v77.363c-26.277 0.90234-51.797 6.5938-75.527 16.613-8.2734-27.883-13.297-59.996-13.941-93.977zm0 92.258v98.57c-28.77-4.7422-54.469-36.523-70.883-82.641 22.246-9.5664 46.203-15.012 70.883-15.93zm14.895 98.57v-98.57c24.664 0.91797 48.617 6.3789 70.875 15.961-16.418 46.102-42.117 77.867-70.875 82.609zm0-113.46v-77.363h89.469c-0.64453 33.996-5.6758 66.125-13.957 94.004-23.742-10.047-49.25-15.73-75.512-16.641zm0-92.262v-77.371c26.254-0.90234 51.77-6.5703 75.516-16.566 8.2812 27.859 13.312 59.969 13.957 93.934l-89.473-0.003907zm123.81-141.59c-12.145 10.672-25.383 19.742-39.457 27.082-11.055-30.234-26.082-54.801-43.645-70.852 31.281 7.8125 59.637 23.07 83.102 43.77zm-223.58 26.836c-13.898-7.2969-26.973-16.281-38.953-26.84 23.199-20.453 51.152-35.613 82.012-43.52-17.441 15.965-32.23 40.266-43.059 70.359zm-49.77-16.566c13.777 12.305 28.902 22.664 45.059 30.91-8.8711 29.504-14.148 63.629-14.777 100.41l-86.75-0.003907c1.8945-50.988 23.074-97.121 56.469-131.31zm-56.469 146.22h86.746c0.62891 36.805 5.9062 70.965 14.77 100.49-16.141 8.2578-31.258 18.656-45.035 30.988-33.406-34.23-54.586-80.418-56.48-131.48zm67.309 141.75c11.973-10.59 25.039-19.586 38.922-26.906 10.832 30.141 25.625 54.484 43.082 70.453-30.848-7.8945-58.812-23.07-82.004-43.547zm223.06-27.148c14.059 7.3555 27.297 16.457 39.434 27.156-23.465 20.711-51.82 35.984-83.105 43.805 17.578-16.07 32.613-40.676 43.672-70.961zm50.258 16.879c-13.918-12.43-29.184-22.871-45.48-31.168 9.1016-29.656 14.562-63.836 15.223-100.32h86.746c-1.8867 51.066-23.078 97.262-56.488 131.49z"/>
</svg>
