<?xml version="1.0" encoding="UTF-8"?>
<svg width="752pt" height="752pt" version="1.1" viewBox="0 0 752 752" xmlns="http://www.w3.org/2000/svg">
 <path d="m233.93 402.52v-93.297c0-10.418 8.5234-18.941 18.941-18.941h249.11l-28.887-28.887c-1.8945-1.8945-1.8945-4.7344 0-6.6289 1.8945-1.8945 4.7344-1.8945 6.6289 0l36.938 36.938c1.8945 1.8945 1.8945 4.7344 0 6.6289l-36.938 36.938c-0.94531 0.94531-2.3672 1.4219-3.3164 1.4219-0.94531 0-2.3672-0.47266-3.3164-1.4219-1.8945-1.8945-1.8945-4.7344 0-6.6289l28.887-28.887-249.1-0.003906c-5.2109 0-9.4727 4.2617-9.4727 9.4727v93.297c0 2.8398-1.8945 4.7344-4.7344 4.7344-2.8438 0-4.7383-2.3672-4.7383-4.7344zm279.41-57.777c-2.8398 0-4.7344 1.8945-4.7344 4.7344v93.297c0 5.2109-4.2617 9.4727-9.4727 9.4727l-249.11-0.003906 28.887-28.887c1.8945-1.8945 1.8945-4.7344 0-6.6289-1.8945-1.8945-4.7344-1.8945-6.6289 0l-36.938 36.938c-1.8945 1.8945-1.8945 4.7344 0 6.6289l36.938 36.938c0.94531 0.94531 2.3672 1.4219 3.3164 1.4219 0.94531 0 2.3672-0.47266 3.3164-1.4219 1.8945-1.8945 1.8945-4.7344 0-6.6289l-28.891-29.359h249.11c10.418 0 18.941-8.5234 18.941-18.941v-92.824c0-2.3672-1.8945-4.7344-4.7344-4.7344z"/>
</svg>
