<?xml version="1.0" encoding="UTF-8"?>
<svg width="752pt" height="752pt" version="1.1" viewBox="0 0 752 752" xmlns="http://www.w3.org/2000/svg">
 <path d="m514.74 228.14c-3.4102 0-5.1133 3.9766-2.8398 6.5352l22.164 23.016h-63.078c-35.809 0-55.977 20.742-68.77 43.477v0.28516l-82.688 151.45c-11.934 20.176-36.656 32.109-53.703 32.109h-56.262c-5.1133 0-5.1133 7.6719 0 7.6719h56.262c20.457 0 46.602-13.074 60.238-36.086l39.781-72.742 36.371 66.492v0.28906c12.785 22.73 32.961 43.477 68.77 43.477h63.078l-22.164 23.012c-3.6953 3.6953 1.9883 9.375 5.3984 5.4023l28.129-29.551c1.4219-1.4219 1.4219-3.6953 0-5.1133l-28.129-29.551c-0.56641-0.85156-1.6992-1.1328-2.5586-1.1328-3.4102-0.28906-5.1133 3.9766-2.8398 6.2461l22.164 23.016-63.078-0.007813c-32.961 0-50.016-17.902-62.234-39.781l-38.645-70.75 38.645-70.754c12.219-21.879 29.273-39.781 62.234-39.781h63.078l-22.164 23.016c-3.4102 3.6953 1.9883 8.8086 5.3984 5.1133l28.129-29.551c1.4219-1.4219 1.4219-3.6953 0-5.1133l-28.129-29.551c-0.57031-0.57031-1.7031-1.1367-2.5586-1.1367zm-305.18 30.973c-5.3984 0-5.3984 7.6719 0 7.6719h56.262c17.051 0 41.77 11.934 53.703 32.109l33.531 61.66c2.2734 4.5469 9.0938 0.85156 6.5352-3.6953l-33.531-61.66c-13.641-23.016-39.781-36.086-60.238-36.086z"/>
</svg>
