<?xml version="1.0" encoding="UTF-8"?>
<svg width="752pt" height="752pt" version="1.1" viewBox="0 0 752 752" xmlns="http://www.w3.org/2000/svg">
 <path d="m289.6 215.14c-24.031 0-47.938 9.4961-66.152 28.562-36.434 38.129-36.539 99.328-0.14844 137.49l145.77 152.88c3.5273 3.7305 10.234 3.7305 13.766 0 48.629-50.891 97.145-101.84 145.77-152.73 36.434-38.129 36.434-99.355 0-137.48-36.434-38.129-96.02-38.133-132.45 0l-20.129 20.867-20.129-21.016c-19.645-20.637-43.98-28.664-66.301-28.562zm0 18.648c18.938 0 37.977 7.6953 52.688 23.086l26.934 28.266c3.5273 3.7305 10.234 3.7305 13.766 0l26.785-28.117c29.418-30.789 75.805-30.789 105.22 0 29.418 30.789 29.418 80.504 0 111.29-46.316 48.469-92.652 97.008-138.96 145.48l-138.96-145.62c-29.398-30.824-29.418-80.504 0-111.29 14.707-15.395 33.598-23.086 52.539-23.086z"/>
</svg>
