<?xml version="1.0" encoding="UTF-8"?>
<svg width="752pt" height="752pt" version="1.1" viewBox="0 0 752 752" xmlns="http://www.w3.org/2000/svg">
 <defs>
  <clipPath id="a">
   <path d="m139.21 139.21h473.58v473.58h-473.58z"/>
  </clipPath>
 </defs>
 <g clip-path="url(#a)">
  <path d="m376 139.21c131.04 0 236.79 105.75 236.79 236.79s-105.75 236.79-236.79 236.79-236.79-105.75-236.79-236.79 105.75-236.79 236.79-236.79zm0 17.625c121.08 0 219.16 98.09 219.16 219.16 0 121.08-98.09 219.16-219.16 219.16-121.08 0-219.16-98.09-219.16-219.16 0-121.08 98.09-219.16 219.16-219.16z" fill-rule="evenodd"/>
 </g>
 <path d="m346.88 244.2v263.61h-76.633v-263.61h76.633zm-13.793 13.793h-49.809v236.02h49.809z"/>
 <path d="m481.75 244.2v263.61h-76.633v-263.61h76.633zm-13.793 13.793h-49.043v236.02h49.043z"/>
</svg>
