<?xml version="1.0" encoding="UTF-8"?>
<svg width="752pt" height="752pt" version="1.1" viewBox="0 0 752 752" xmlns="http://www.w3.org/2000/svg">
 <defs>
  <clipPath id="a">
   <path d="m255 184h357.79v384h-357.79z"/>
  </clipPath>
 </defs>
 <path d="m212.47 539.54c-43.66-43.66-67.707-101.75-67.707-163.54 0-61.785 24.047-119.88 67.707-163.53 43.656-43.66 101.75-67.707 163.53-67.707 61.789 0 119.88 24.051 163.54 67.707 43.656 43.656 67.707 101.75 67.707 163.53 0 61.789-24.051 119.88-67.707 163.54-43.66 43.656-101.75 67.707-163.54 67.707-61.785 0-119.88-24.051-163.53-67.707zm-58.457-163.54c0 122.37 99.617 221.99 221.99 221.99 122.37 0 221.99-99.617 221.99-221.99-0.003906-122.37-99.621-221.99-222-221.99-122.37 0-221.99 99.617-221.99 221.99z"/>
 <g clip-path="url(#a)">
  <path transform="matrix(.92496 0 0 .92496 139.21 139.21)" d="m292 256.7-24.6-66.7 114.6 65.999-114.6 66.101z" fill="none" stroke="#000" stroke-miterlimit="10" stroke-width="10"/>
 </g>
 <path transform="matrix(.92496 0 0 .92496 139.21 139.21)" d="m173 256.7-24.6-66.7 114.6 65.999-114.6 66.101z" fill="none" stroke="#000" stroke-miterlimit="10" stroke-width="10"/>
</svg>
