<?xml version="1.0" encoding="UTF-8"?>
<svg width="752pt" height="752pt" version="1.1" viewBox="0 0 752 752" xmlns="http://www.w3.org/2000/svg">
 <g>
  <path d="m503.54 332.2c0-0.5 0.011719-1 0.019532-1.5 0.011718-0.5625 0.023437-1.125 0.023437-1.6953 0-70.125-57.043-127.18-127.16-127.18-70.094 0-127.12 57.051-127.12 127.18 0 1.1211 0 2.2422 0.035157 3.3047 0.90625 46.133 20.641 72.367 39.719 97.738 18.062 24.016 35.125 46.699 35.129 85.59v0.015626 53.215c0 3.0625 2.4844 5.5508 5.5508 5.5508h4.5039c3.2734 16.559 20.938 29.246 42.184 29.246 21.258 0 38.938-12.691 42.211-29.246h4.5c3.0625 0 5.5508-2.4844 5.5508-5.5508v-53.215c0-38.898 17.062-61.582 35.129-85.602 19.086-25.371 38.82-51.605 39.719-97.742 0.003906-0.035157 0.003906-0.070313 0.003906-0.10938zm-85.949 204.49h-82.297v-15.484h82.297zm0 26.629h-82.301v-15.527h82.297zm-41.168 29.246c-14.891 0-27.414-7.75-30.758-18.148h61.543c-3.3438 10.398-15.879 18.148-30.785 18.148zm116.04-262.09c-0.011719 0.55859-0.023437 1.1172-0.023437 1.6719-0.84375 42.516-18.645 66.18-37.492 91.234-17.555 23.336-35.684 47.434-37.25 86.723h-82.516c-1.5664-39.289-19.695-63.387-37.25-86.727-18.852-25.062-36.656-48.734-37.496-91.344-0.03125-1.0078-0.03125-2.0156-0.03125-3.0234 0-64.004 52.043-116.08 116.02-116.08 63.996 0 116.06 52.07 116.06 116.07 0.007813 0.49219-0.003906 0.98438-0.015625 1.4727z"/>
  <path d="m376.46 191.7c3.0625 0 5.5508-2.4844 5.5508-5.5508v-31.375c0-3.0625-2.4844-5.5508-5.5508-5.5508-3.0625 0-5.5508 2.4844-5.5508 5.5508l0.003906 31.375c0 3.0664 2.4844 5.5508 5.5469 5.5508z"/>
  <path d="m300.25 208.06c1.0273 1.7812 2.8945 2.7734 4.8125 2.7734 0.94141 0 1.8984-0.24219 2.7695-0.74609 2.6523-1.5352 3.5625-4.9297 2.0312-7.582l-15.691-27.16c-1.5352-2.6562-4.9258-3.5625-7.582-2.0312-2.6523 1.5352-3.5625 4.9297-2.0312 7.582z"/>
  <path d="m222.83 246.68 27.148 15.688c0.875 0.50391 1.8281 0.74609 2.7734 0.74609 1.918 0 3.7812-0.99609 4.8086-2.7734 1.5352-2.6523 0.625-6.0469-2.0273-7.582l-27.148-15.688c-2.6523-1.5352-6.0469-0.625-7.582 2.0273-1.5352 2.6523-0.625 6.0469 2.0273 7.582z"/>
  <path d="m239.18 329c0-3.0625-2.4844-5.5508-5.5508-5.5508h-31.359c-3.0625 0-5.5508 2.4844-5.5508 5.5508 0 3.0625 2.4844 5.5508 5.5508 5.5508h31.359c3.0664-0.003907 5.5508-2.4883 5.5508-5.5508z"/>
  <path d="m249.98 395.64-27.148 15.695c-2.6523 1.5352-3.5625 4.9297-2.0273 7.582 1.0273 1.7773 2.8906 2.7734 4.8086 2.7734 0.94141 0 1.8984-0.24219 2.7734-0.74609l27.148-15.695c2.6523-1.5352 3.5625-4.9297 2.0273-7.582s-4.9297-3.5625-7.582-2.0273z"/>
  <path d="m445.1 210.09c0.87109 0.50391 1.8242 0.74219 2.7617 0.74219 1.9219 0 3.7891-0.99609 4.8164-2.7812l15.637-27.16c1.5273-2.6562 0.61328-6.0508-2.043-7.5781-2.6562-1.5312-6.0508-0.61328-7.5781 2.0391l-15.633 27.16c-1.5312 2.6562-0.61719 6.0508 2.0391 7.5781z"/>
  <path d="m500.12 263.15c0.94141 0 1.8984-0.24219 2.7734-0.74609l27.148-15.695c2.6523-1.5352 3.5625-4.9297 2.0273-7.582-1.5312-2.6523-4.9258-3.5625-7.582-2.0273l-27.148 15.695c-2.6523 1.5352-3.5625 4.9297-2.0273 7.582 1.0234 1.7812 2.8867 2.7734 4.8086 2.7734z"/>
  <path d="m550.6 323.5h-31.359c-3.0625 0-5.5508 2.4844-5.5508 5.5508 0 3.0625 2.4844 5.5508 5.5508 5.5508h31.359c3.0625 0 5.5508-2.4844 5.5508-5.5508s-2.4883-5.5508-5.5508-5.5508z"/>
  <path d="m530 411.34-27.148-15.695c-2.6562-1.5352-6.0508-0.625-7.582 2.0273-1.5352 2.6523-0.62891 6.0469 2.0273 7.582l27.148 15.695c0.875 0.50781 1.832 0.74609 2.7734 0.74609 1.918 0 3.7812-0.99609 4.8086-2.7734 1.5352-2.6523 0.625-6.0469-2.0273-7.582z"/>
 </g>
</svg>
