<svg id="Camada_1" data-name="Camada 1" xmlns="http://www.w3.org/2000/svg" viewBox="0 0 442.61 464.12"><defs><style>.cls-1{fill:#fff;}</style></defs><path class="cls-1" d="M421.48,464.11a21.22,21.22,0,0,1-15.15-6.63L293.62,341.93c-8.05-8.52-8.05-21.78.47-29.83s21.78-8.06,29.83.47l112.71,116c8.06,8.52,8.06,21.78-.47,29.83a21.18,21.18,0,0,1-14.68,5.69Z"/><path class="cls-1" d="M192.75,381.71C86.2,381.71,0,296,0,190.86-.47,85.72,86.19,0,192.75,0S385.5,85.72,385.5,190.85,298.84,381.71,192.75,381.71Zm0-339.56c-83.35,0-151.07,66.78-151.07,148.71s67.72,148.7,151.07,148.7c82.88,0,150.6-66.77,150.6-148.7S275.63,42.15,192.75,42.15Z"/></svg>