<?xml version="1.0" encoding="UTF-8"?>
<svg width="752pt" height="752pt" version="1.1" viewBox="0 0 752 752" xmlns="http://www.w3.org/2000/svg">
 <path d="m474.95 414.06c12.586 0 22.832-10.242 22.832-22.832v-197.89c0-12.586-10.242-22.832-22.832-22.832h-289.22c-12.59-0.003906-22.832 10.238-22.832 22.832v197.89c0 12.586 10.242 22.832 22.832 22.832h22.832v98.945c0 3.0781 1.8555 5.8516 4.6992 7.0312 0.94141 0.38672 1.9336 0.57812 2.9141 0.57812 1.9805 0 3.9258-0.77344 5.3828-2.2305l104.32-104.32zm-157.6-12.996-93.566 93.566v-88.18c0-4.207-3.4102-7.6094-7.6094-7.6094l-30.445-0.003906c-4.1953 0-7.6094-3.4141-7.6094-7.6094l-0.003906-197.89c0-4.1953 3.4141-7.6094 7.6094-7.6094h289.22c4.1953 0 7.6094 3.4141 7.6094 7.6094v197.89c0 4.1953-3.4141 7.6094-7.6094 7.6094h-152.21c-2.0156-0.003907-3.9531 0.80078-5.3789 2.2266zm271.77-146.84v197.89c0 12.594-10.242 22.832-22.832 22.832h-22.832v98.945c0 3.0781-1.8555 5.8516-4.6992 7.0312-0.94141 0.38672-1.9336 0.57812-2.9141 0.57812-1.9805 0-3.9258-0.77344-5.3828-2.2305l-104.33-104.33h-133.85c-4.207 0-7.6094-3.4102-7.6094-7.6094 0-4.207 3.4102-7.6094 7.6094-7.6094h137c2.0156 0 3.9531 0.80078 5.3789 2.2305l93.562 93.566v-88.18c0-4.207 3.4102-7.6094 7.6094-7.6094h30.445c4.1953 0 7.6094-3.4141 7.6094-7.6094l0.003907-197.9c0-4.1953-3.4141-7.6094-7.6094-7.6094h-45.668c-4.207 0-7.6094-3.4102-7.6094-7.6094 0-4.1992 3.4102-7.6094 7.6094-7.6094h45.668c12.594-0.007813 22.836 10.234 22.836 22.828zm-152.22-15.227c0 4.207-3.4102 7.6094-7.6094 7.6094h-197.89c-4.207 0-7.6094-3.4102-7.6094-7.6094s3.4102-7.6094 7.6094-7.6094h197.89c4.207 0 7.6133 3.4062 7.6133 7.6094zm0 53.277c0 4.207-3.4102 7.6094-7.6094 7.6094h-197.89c-4.207 0-7.6094-3.4102-7.6094-7.6094 0-4.207 3.4102-7.6094 7.6094-7.6094h197.89c4.207 0 7.6133 3.4102 7.6133 7.6094zm-76.109 53.277c0 4.207-3.4102 7.6094-7.6094 7.6094h-121.78c-4.207 0-7.6094-3.4102-7.6094-7.6094 0-4.207 3.4102-7.6094 7.6094-7.6094h121.78c4.2031 0 7.6133 3.4102 7.6133 7.6094z"/>
</svg>
